<svg width="1600" height="760" viewBox="0 0 1600 760" fill="none" xmlns="http://www.w3.org/2000/svg">
  <defs>
    <linearGradient id="bg-a" x1="130" y1="44" x2="1490" y2="742" gradientUnits="userSpaceOnUse">
      <stop stop-color="#0B1E2F"/>
      <stop offset="0.53" stop-color="#123B5B"/>
      <stop offset="1" stop-color="#0A253D"/>
    </linearGradient>
    <linearGradient id="track-a" x1="240" y1="520" x2="1360" y2="308" gradientUnits="userSpaceOnUse">
      <stop stop-color="#67E8F9"/>
      <stop offset="1" stop-color="#2DD4BF"/>
    </linearGradient>
  </defs>
  <rect width="1600" height="760" rx="48" fill="url(#bg-a)"/>
  <circle cx="138" cy="118" r="66" fill="#67E8F9" fill-opacity="0.16"/>
  <circle cx="1452" cy="114" r="80" fill="#2DD4BF" fill-opacity="0.14"/>
  <circle cx="1320" cy="650" r="120" fill="#67E8F9" fill-opacity="0.08"/>
  <rect x="170" y="148" width="688" height="410" rx="30" fill="#0F2A42" fill-opacity="0.9" stroke="#67E8F9" stroke-opacity="0.35"/>
  <path d="M235 520L420 502L610 455L795 430L980 392L1175 354L1360 308" stroke="url(#track-a)" stroke-width="10" stroke-linecap="round"/>
  <circle cx="420" cy="502" r="12" fill="#8BF5FF"/>
  <circle cx="610" cy="455" r="12" fill="#8BF5FF"/>
  <circle cx="795" cy="430" r="12" fill="#8BF5FF"/>
  <circle cx="980" cy="392" r="12" fill="#8BF5FF"/>
  <circle cx="1175" cy="354" r="12" fill="#8BF5FF"/>
  <circle cx="1360" cy="308" r="12" fill="#8BF5FF"/>
  <rect x="248" y="230" width="538" height="14" rx="7" fill="#A6F8FF"/>
  <rect x="248" y="280" width="478" height="14" rx="7" fill="#7DE8F6"/>
  <rect x="248" y="330" width="416" height="14" rx="7" fill="#62D5EC"/>
  <rect x="248" y="380" width="348" height="14" rx="7" fill="#46C1E0"/>
  <text x="196" y="640" fill="#ECFEFF" font-family="Sora, Arial, sans-serif" font-size="44" font-weight="700">Global Surveillance</text>
  <text x="196" y="686" fill="#B7F8FF" font-family="Sora, Arial, sans-serif" font-size="24" font-weight="500">Country-level signals and weekly progression</text>
</svg>
